<?xml version="1.0" encoding="utf-8"?>
<!-- Generator: Adobe Illustrator 25.0.0, SVG Export Plug-In . SVG Version: 6.00 Build 0)  -->
<svg version="1.1" id="Calque_1" xmlns="http://www.w3.org/2000/svg" xmlns:xlink="http://www.w3.org/1999/xlink" x="0px" y="0px"
	 viewBox="0 0 1920 1080" style="enable-background:new 0 0 1920 1080;" xml:space="preserve">
<style type="text/css">
	.st0{fill:#FAE6B1;}
	.st1{fill:none;}
	.st2{fill:#BFF23D;}
	.st3{fill:#FB5724;}
	.st4{fill:#FB5724;stroke:#FB5724;stroke-width:3;stroke-miterlimit:10;}
</style>
<path class="st0" d="M2418,414"/>
<path class="st0" d="M1506,1498"/>
<path class="st1" d="M629,263c15.3-0.7,30.7-1.3,46-2c14.7-0.7,29.3-1.3,44-2"/>
<g>
	<g>
		<rect x="1004" y="595" class="st2" width="75" height="163"/>
	</g>
	<g>
		<rect x="1146" y="529" class="st2" width="75" height="229"/>
	</g>
	<g>
		<rect x="1221" y="498" class="st2" width="75" height="260"/>
	</g>
	<g>
		<rect x="1071" y="561" class="st2" width="75" height="197"/>
	</g>
	<g>
		<g>
			<path class="st3" d="M1042.2,704.8c-4.9,0-9-1-12.4-2.9s-5.9-4.6-7.6-7.9s-2.5-7.1-2.5-11.3c0-4.9,1-9.2,3-13.1s4.8-6.9,8.4-9.1
				s7.8-3.3,12.6-3.3c4.1,0,7.7,0.8,10.8,2.5s5.5,4,7.1,7s2.5,6.3,2.5,10.1c0,2.8-0.6,5.6-1.7,8.2s-2.7,4.8-4.8,6.5
				s-4.5,2.5-7.2,2.5c-1.2,0-2.3-0.3-3.1-0.8s-1.5-1.3-1.9-2.3c-1.9,2.1-4.1,3.1-6.4,3.1c-2.6,0-4.5-0.9-5.8-2.6s-2-4-2-6.9
				c0-3,0.5-5.7,1.5-8.3s2.3-4.5,4-6s3.4-2.2,5.2-2.2c1.3,0,2.5,0.3,3.6,0.9s2.1,1.5,2.9,2.7l0.6-2.7h4.8l-3.6,18.9l-0.1,0.8
				c0,0.9,0.4,1.4,1.2,1.4c1.4,0,2.7-0.6,3.9-1.8s2.3-2.9,3-4.9s1.1-4.2,1.1-6.4c0-3.1-0.7-5.9-2-8.2s-3.2-4.1-5.6-5.4
				s-5.2-1.9-8.4-1.9c-3.5,0-6.7,0.9-9.6,2.7s-5.1,4.3-6.8,7.6s-2.5,7-2.5,11.1c0,3.6,0.7,6.8,2.2,9.5s3.6,4.8,6.3,6.3
				s5.9,2.2,9.4,2.2c5.1,0,9.7-1.5,14-4.5l2.1,3.3c-2.1,1.6-4.6,2.9-7.4,3.8S1045.3,704.8,1042.2,704.8z M1039.8,690
				c1.6,0,3-0.7,4-2.2s1.8-3.1,2.3-5.1s0.7-3.7,0.7-5.3c0-1.5-0.4-2.7-1.2-3.6s-1.8-1.4-3-1.4c-1.2,0-2.2,0.6-3.2,1.7
				s-1.8,2.7-2.4,4.6s-0.9,4-0.9,6.3c0,1.6,0.3,2.8,1,3.7S1038.8,690,1039.8,690z"/>
		</g>
		<g>
			<path class="st3" d="M1116.7,647.3h19.8v7.1h-6.9v43h6.9v7.1H1115v-7.1h6.8v-43l-19.7,50.7h-1.7l-19.5-50.7v43h6.3v7.1h-20.3
				v-7.1h7v-43h-7v-7.1h19.6l15.1,39.2L1116.7,647.3z"/>
		</g>
		<g>
			<path class="st3" d="M1195.6,647.5h19.9v7.2h-6.9v43.2h6.9v7.2h-21.6v-7.2h6.8v-43.2l-19.8,51h-1.7l-19.6-51v43.2h6.3v7.2h-20.4
				v-7.2h7v-43.2h-7v-7.2h19.7l15.2,39.4L1195.6,647.5z"/>
		</g>
		<g>
			<path class="st3" d="M1265.1,664.2v-9.6h-24.6v17.1h21.4v7.2h-21.4v18.8h24.6v-10.5h7.1v17.7h-47.8v-7.2h7.4v-43.2h-7.4v-7.2
				h47.8v16.8H1265.1z"/>
		</g>
	</g>
	<g>
		<path class="st4" d="M1286.7,412.2l-274.9,134.1c-3.8,1.9-8.4,0.3-10.3-3.6l0,0c-1.9-3.8-0.3-8.4,3.6-10.3L1280,398.3
			c3.8-1.9,8.4-0.3,10.3,3.6l0,0C1292.1,405.7,1290.6,410.3,1286.7,412.2z"/>
		<path class="st4" d="M1278.8,412.4l-56.7-11c-4.9-0.9-8.1-5.7-7.1-10.5v0c0.9-4.9,5.7-8.1,10.5-7.1l56.7,11
			c4.9,0.9,8.1,5.7,7.1,10.5l0,0C1288.4,410.2,1283.7,413.4,1278.8,412.4z"/>
		<path class="st4" d="M1248.5,450.4l24.6-47.6c2.3-4.4,7.7-6.1,12.1-3.9h0c4.4,2.3,6.1,7.7,3.9,12.1l-24.6,47.6
			c-2.3,4.4-7.7,6.1-12.1,3.9l0,0C1248,460.2,1246.2,454.8,1248.5,450.4z"/>
	</g>
</g>
</svg>
